<?xml version="1.0" encoding="UTF-8"?>
<!DOCTYPE svg PUBLIC "-//W3C//DTD SVG 1.1//EN" "http://www.w3.org/Graphics/SVG/1.1/DTD/svg11.dtd">
<svg xmlns="http://www.w3.org/2000/svg" version="1.1" width="512px" height="512px" style="shape-rendering:geometricPrecision; text-rendering:geometricPrecision; image-rendering:optimizeQuality; fill-rule:evenodd; clip-rule:evenodd" xmlns:xlink="http://www.w3.org/1999/xlink">
<g><path style="opacity:0.988" fill="#000000" d="M 511.5,196.5 C 511.5,197.167 511.5,197.833 511.5,198.5C 463.573,238.09 416.24,278.424 369.5,319.5C 384.665,378.828 399.832,438.161 415,497.5C 415.667,499.167 415.667,500.833 415,502.5C 361.918,468.708 308.751,435.042 255.5,401.5C 202.167,435.167 148.833,468.833 95.5,502.5C 109.994,441.526 125.327,380.526 141.5,319.5C 94.5475,278.695 47.2142,238.361 -0.5,198.5C -0.5,197.833 -0.5,197.167 -0.5,196.5C 61.517,192.721 123.517,188.721 185.5,184.5C 208.245,125.597 231.579,66.9302 255.5,8.5C 279.105,66.7121 302.438,125.045 325.5,183.5C 387.403,188.744 449.403,193.078 511.5,196.5 Z"/></g>
</svg>
